<?xml version="1.0" standalone="no"?><!DOCTYPE svg PUBLIC "-//W3C//DTD SVG 1.1//EN" "http://www.w3.org/Graphics/SVG/1.1/DTD/svg11.dtd"><svg t="1588583582177" class="icon" viewBox="0 0 1024 1024" version="1.1" xmlns="http://www.w3.org/2000/svg" p-id="3640" xmlns:xlink="http://www.w3.org/1999/xlink" width="1000" height="1000"><defs><style type="text/css"></style></defs><path d="M1023.984 512c0 282.74-229.21 511.984-511.984 511.984C229.228 1023.984 0.016 794.74 0.016 512 0.016 229.228 229.228 0.016 512 0.016 794.774 0.016 1023.984 229.228 1023.984 512z" fill="#646C77" p-id="3641"></path><path d="M938.642 512c0 235.618-190.994 426.64-426.642 426.64S85.358 747.618 85.358 512c0-235.648 190.994-426.674 426.642-426.674S938.642 276.352 938.642 512z" fill="#FECD57" p-id="3642"></path><path d="M170.668 512c0-221.242 168.4-403.144 383.988-424.55A436.758 436.758 0 0 0 512 85.324C276.352 85.326 85.358 276.352 85.358 512c0 235.618 190.994 426.64 426.642 426.64 14.406 0 28.626-0.718 42.656-2.126C339.068 915.112 170.668 733.21 170.668 512z" fill="#F5BA45" p-id="3643"></path></svg>