<?xml version="1.0" standalone="no"?><!DOCTYPE svg PUBLIC "-//W3C//DTD SVG 1.1//EN" "http://www.w3.org/Graphics/SVG/1.1/DTD/svg11.dtd"><svg t="1588583637424" class="icon" viewBox="0 0 1335 1024" version="1.1" xmlns="http://www.w3.org/2000/svg" p-id="4044" xmlns:xlink="http://www.w3.org/1999/xlink" width="1303.7109375" height="1000"><defs><style type="text/css"></style></defs><path d="M965.012086 538.399898m21.403457-18.448908l255.565133-220.28674q21.403457-18.448909 39.852366 2.954548l4.739169 5.498136q18.448909 21.403457-2.954548 39.852366l-255.565133 220.28674q-21.403457 18.448909-39.852366-2.954549l-4.739169-5.498135q-18.448909-21.403457 2.954548-39.852366Z" fill="#FFFBB6" p-id="4045"></path><path d="M862.53148 348.215665m13.84352-11.932551l270.685007-233.319455q13.84352-11.932551 25.776071 1.91097l3.046609 3.534515q11.932551 13.84352-1.91097 25.776072l-270.685006 233.319455q-13.84352 11.932551-25.776072-1.910969l-3.046608-3.534516q-11.932551-13.84352 1.910969-25.776072Z" fill="#FFFBB6" p-id="4046"></path><path d="M1184.438829 70.26075m13.843521-11.932551l26.705231-23.018822q13.84352-11.932551 25.776071 1.910969l3.046609 3.534516q11.932551 13.84352-1.91097 25.776072l-26.705231 23.018821q-13.84352 11.932551-25.776071-1.910969l-3.046609-3.534516q-11.932551-13.84352 1.91097-25.776071Z" fill="#FFFBB6" p-id="4047"></path><path d="M979.662637 348.125094m34.166986-29.450551l230.038074-198.283454q34.166987-29.450551 63.617539 4.716435l7.616521 8.83629q29.450551 34.166987-4.716435 63.617538l-230.038074 198.283454q-34.166987 29.450551-63.617538-4.716435l-7.616522-8.83629q-29.450551-34.166987 4.716435-63.617538Z" fill="#FFFBB6" p-id="4048"></path><path d="M337.236502 271.94157m-21.403457 18.448909l-255.565134 220.28674q-21.403457 18.448909-39.852365-2.954549l-4.73917-5.498136q-18.448909-21.403457 2.954549-39.852365l255.565133-220.28674q21.403457-18.448909 39.852366 2.954548l4.739169 5.498136q18.448909 21.403457-2.954548 39.852366Z" fill="#FFFBB6" p-id="4049"></path><path d="M439.730559 462.082283m-13.843521 11.932551l-270.685006 233.319455q-13.84352 11.932551-25.776072-1.910969l-3.046609-3.534516q-11.932551-13.84352 1.91097-25.776071l270.685006-233.319456q13.84352-11.932551 25.776072 1.91097l3.046609 3.534516q11.932551 13.84352-1.91097 25.776071Z" fill="#FFFBB6" p-id="4050"></path><path d="M117.788515 740.121197m-13.84352 11.932551l-26.705231 23.018822q-13.84352 11.932551-25.776072-1.910969l-3.046608-3.534516q-11.932551-13.84352 1.910969-25.776072l26.705231-23.018822q13.84352-11.932551 25.776072 1.91097l3.046608 3.534516q11.932551 13.84352-1.910969 25.776071Z" fill="#FFFBB6" p-id="4051"></path><path d="M322.584388 462.082599m-34.166987 29.450552l-206.376453 177.888101q-34.166987 29.450551-63.617539-4.716435l-7.616522-8.83629q-29.450551-34.166987 4.716436-63.617538l206.376454-177.888101q34.166987-29.450551 63.617538 4.716435l7.616522 8.836289q29.450551 34.166987-4.716436 63.617539Z" fill="#FFFBB6" p-id="4052"></path><path d="M685.95038 512m-512 0a512 512 0 1 0 1024 0 512 512 0 1 0-1024 0Z" fill="#FFFBB6" p-id="4053"></path><path d="M914.341266 920.303797H579.272911a9.721519 9.721519 0 1 1 0-19.443038h335.068355a9.721519 9.721519 0 0 1 0 19.443038zM1087.513924 920.303797H953.486582a9.721519 9.721519 0 0 1 0-19.443038H1087.513924a9.721519 9.721519 0 0 1 0 19.443038zM1165.674937 920.303797h-55.736709a9.721519 9.721519 0 0 1 0-19.443038h55.866329a9.721519 9.721519 0 0 1 0 19.443038zM886.472911 968.911392H551.274937a9.721519 9.721519 0 0 1 0-19.443038h335.197974a9.721519 9.721519 0 0 1 0 19.443038zM512.259241 968.911392H378.231899a9.721519 9.721519 0 0 1 0-19.443038h134.027342a9.721519 9.721519 0 0 1 0 19.443038zM355.807595 968.911392h-55.866329a9.721519 9.721519 0 0 1 0-19.443038h55.866329a9.721519 9.721519 0 0 1 0 19.443038z" fill="#351800" p-id="4054"></path><path d="M53.922025 351.530127m-16.202531 0a16.202532 16.202532 0 1 0 32.405063 0 16.202532 16.202532 0 1 0-32.405063 0Z" fill="#EFE6B9" p-id="4055"></path><path d="M1249.28 551.404557m-16.202532 0a16.202532 16.202532 0 1 0 32.405064 0 16.202532 16.202532 0 1 0-32.405064 0Z" fill="#FEE88D" p-id="4056"></path><path d="M1170.470886 32.145823m-16.202532 0a16.202532 16.202532 0 1 0 32.405064 0 16.202532 16.202532 0 1 0-32.405064 0Z" fill="#FEE88D" p-id="4057"></path><path d="M59.495696 238.760506m-32.405063 0a32.405063 32.405063 0 1 0 64.810126 0 32.405063 32.405063 0 1 0-64.810126 0Z" fill="#FFF9D7" p-id="4058"></path><path d="M162.154937 229.427848m-19.961519 0a19.961519 19.961519 0 1 0 39.923038 0 19.961519 19.961519 0 1 0-39.923038 0Z" fill="#FEE88D" p-id="4059"></path><path d="M1302.683544 433.968608m-32.405063 0a32.405063 32.405063 0 1 0 64.810127 0 32.405063 32.405063 0 1 0-64.810127 0Z" fill="#FFC969" p-id="4060"></path><path d="M202.337215 88.660253m4.018228 0l2.073924 0q4.018228 0 4.018228 4.018228l0 73.105823q0 4.018228-4.018228 4.018228l-2.073924 0q-4.018228 0-4.018228-4.018228l0-73.105823q0-4.018228 4.018228-4.018228Z" fill="#EFCB7B" p-id="4061"></path><path d="M175.176849 104.205683m2.841316-2.841317l1.466486-1.466485q2.841316-2.841316 5.682632 0l51.693623 51.693623q2.841316 2.841316 0 5.682632l-1.466486 1.466486q-2.841316 2.841316-5.682632 0l-51.693623-51.693623q-2.841316-2.841316 0-5.682633Z" fill="#EFCB7B" p-id="4062"></path><path d="M178.563377 158.251623m-2.466678-3.172012l-1.273124-1.637167q-2.466677-3.172012 0.705335-5.638689l57.710147-44.877614q3.172012-2.466677 5.638689 0.705334l1.273124 1.637168q2.466677 3.172012-0.705335 5.638689l-57.710147 44.877614q-3.172012 2.466677-5.638689-0.705335Z" fill="#EFCB7B" p-id="4063"></path><path d="M248.093165 124.176203m0 4.018227l0 2.073924q0 4.018228-4.018228 4.018228l-73.105823 0q-4.018228 0-4.018228-4.018228l0-2.073924q0-4.018228 4.018228-4.018227l73.105823 0q4.018228 0 4.018228 4.018227Z" fill="#EFCB7B" p-id="4064"></path><path d="M1051.997975 38.886076m4.018228 0l2.073924 0q4.018228 0 4.018227 4.018228l0 77.383291q0 4.018228-4.018227 4.018228l-2.073924 0q-4.018228 0-4.018228-4.018228l0-77.383291q0-4.018228 4.018228-4.018228Z" fill="#FEE88D" p-id="4065"></path><path d="M1086.476962 111.084557l-1.425823 1.555443a3.888608 3.888608 0 0 1-5.703291 0l-51.848101-54.310886a4.407089 4.407089 0 0 1 0-6.092152l1.425823-1.555443a3.888608 3.888608 0 0 1 5.703291 0l51.848101 54.310886a4.407089 4.407089 0 0 1 0 6.092152z" fill="#FEE88D" p-id="4066"></path><path d="M1088.810127 54.570127l1.296202 1.685063a4.407089 4.407089 0 0 1-1.296202 5.962532l-57.421773 47.181772a3.888608 3.888608 0 0 1-5.703291-0.777722L1024 106.936709a4.407089 4.407089 0 0 1 0.648101-5.962532l57.681013-47.181772a3.888608 3.888608 0 0 1 6.481013 0.777722z" fill="#FEE88D" p-id="4067"></path><path d="M1097.494684 76.216709m0 4.018228l0 2.592405q0 4.018228-4.018228 4.018228l-73.105823 0q-4.018228 0-4.018228-4.018228l0-2.592405q0-4.018228 4.018228-4.018228l73.105823 0q4.018228 0 4.018228 4.018228Z" fill="#FEE88D" p-id="4068"></path><path d="M353.08557 817.385316s11.147342-77.772152 55.477468-66.495189 33.312405-55.477468 77.772152-33.312405 11.147342 66.49519 44.330126 33.312405 155.544304 22.165063 110.825317 77.772151-77.772152-22.165063-155.544304 0-144.137722 22.165063-133.12-11.147341" fill="#EFB681" p-id="4069"></path><path d="M637.731646 774.092152a37.978734 37.978734 0 0 1-9.332659 28.516456c-44.330127 55.477468-76.475949-8.166076-154.118481 13.998987a211.151392 211.151392 0 0 1-120.676455-2.203544v3.110886c-11.147342 33.312405 55.477468 33.312405 133.12 11.147341s110.825316 55.477468 155.544303 0a38.886076 38.886076 0 0 0-4.536708-54.570126zM505.518987 735.335696a40.441519 40.441519 0 0 0-6.999493-8.814177c1.944304 8.166076 1.685063 12.313924 6.999493 8.814177z" fill="#E5A46E" p-id="4070"></path><path d="M830.476962 261.703291c9.462278-15.55443 14.517468-34.608608 3.499747-45.755949-8.036456-8.036456-22.035443-2.462785-33.442025 4.536709-144.267342-48.218734-205.966582-61.31038-375.898735 97.733671-149.063291 139.730633-84.123544 298.126582-62.995443 339.086582l-1.685063 1.685063C345.049114 674.025316 329.753924 720.170127 375.898734 704.874937A120.676456 120.676456 0 0 0 399.619241 686.987342c56.51443 25.016709 197.282025 66.235949 324.050632-67.532152 154.636962-161.506835 149.192911-224.891139 106.807089-357.751899z" fill="#A86520" p-id="4071"></path><path d="M830.476962 261.703291c9.462278-15.55443 14.517468-34.608608 3.499747-45.755949-8.036456-8.036456-22.035443-2.462785-33.442025 4.536709-12.054684-4.018228-23.461266-7.777215-34.478988-11.276962 42.256203 132.860759 47.829873 196.245063-106.158987 357.881519-114.325063 119.898734-239.019747 99.937215-304.477975 76.346329 2.462785 5.444051 4.666329 10.24 6.610633 13.869367l-1.685063 1.685063c-15.29519 15.035949-30.59038 61.180759 15.55443 45.88557A120.676456 120.676456 0 0 0 399.619241 686.987342c56.51443 25.016709 197.282025 66.235949 324.050632-67.532152 154.636962-161.506835 149.192911-224.891139 106.807089-357.751899z" fill="#9B5719" p-id="4072"></path><path d="M362.936709 477.909873a6.481013 6.481013 0 0 1-5.444051-10.110379C357.622278 466.632911 401.822785 401.822785 434.227848 357.751899c132.471899-187.690127 274.794937-157.358987 280.887089-155.544304a6.481013 6.481013 0 0 1-2.851646 12.962025c-1.425823 0-140.249114-29.294177-267.406582 151.007595-32.534684 43.422785-76.216709 108.881013-76.73519 109.529114a6.481013 6.481013 0 0 1-5.18481 2.203544z" fill="#351800" p-id="4073"></path><path d="M417.377215 444.986329a6.481013 6.481013 0 0 1-3.888607-1.296202l-43.811646-32.923545a6.481013 6.481013 0 0 1 7.777215-10.36962l43.811646 32.923544a6.481013 6.481013 0 0 1-3.888608 11.665823zM570.977215 316.532658a9.721519 9.721519 0 0 1-6.869873-2.851645l-21.905823-21.905823a9.721519 9.721519 0 1 1 13.739747-13.739747l21.905823 21.905823a9.721519 9.721519 0 0 1-6.869874 16.591392zM461.318481 422.950886a6.481013 6.481013 0 0 1-5.444051-10.11038l43.811646-65.847088a6.481013 6.481013 0 1 1 10.758481 7.129114L466.632911 420.099241a6.481013 6.481013 0 0 1-5.31443 2.851645z" fill="#351800" p-id="4074"></path><path d="M324.260438 663.402941m21.53901-21.53901l439.487451-439.487451q21.53901-21.53901 43.078019 0l0.824898 0.824898q21.53901 21.53901 0 43.078019l-439.487451 439.487451q-21.53901 21.53901-43.078019 0l-0.824898-0.824898q-21.53901-21.53901 0-43.078019Z" fill="#934E0F" p-id="4075"></path><path d="M509.537215 701.115949a312.51443 312.51443 0 0 1-119.121012-24.627848 81.531139 81.531139 0 0 1-22.683545 15.684051c-24.368608 8.166076-34.997468 0.777722-39.793417-6.740253-9.332658-15.16557 1.296203-38.886076 11.406582-51.848102-25.275949-52.885063-78.809114-207.392405 68.050633-344.530632 171.228354-160.340253 237.723544-148.804051 381.083544-101.103798 22.294684-12.962025 34.738228-7.388354 41.348861-0.777721 12.184304 12.184304 12.184304 32.016203 0 53.792405 42.645063 135.193924 43.163544 202.985316-109.658734 362.936708-71.291139 75.568608-147.118987 97.21519-210.632912 97.21519z m-122.491139-47.311392l5.573671 2.462785c53.144304 23.590886 190.152911 64.810127 313.681012-64.810127 154.507342-162.284557 143.48962-223.983797 103.696203-348.28962l-1.296203-4.277468 2.333165-3.758988c6.740253-11.147342 12.054684-26.572152 4.92557-33.830886-2.722025-2.722025-11.147342 0-21.387342 5.832912l-3.888608 2.333164-4.147848-2.073924C642.009114 159.432911 583.291139 150.489114 420.617722 303.441013c-142.582278 134.156962-82.827342 285.164557-60.921519 327.68l3.240506 6.221772-6.610633 6.740253c-8.943797 8.943797-14.647089 25.924051-11.795443 31.108861 0 0.907342 4.92557 2.592405 17.109873-1.425823a122.620759 122.620759 0 0 0 20.868861-15.943291z" fill="#351800" p-id="4076"></path><path d="M384.583291 656.526582a9.721519 9.721519 0 0 1-6.869873-16.591392l427.746835-427.746836a9.721519 9.721519 0 0 1 13.739747 13.739747l-427.746835 427.746836a9.721519 9.721519 0 0 1-6.869874 2.851645zM520.425316 343.23443h-0.777721a6.610633 6.610633 0 0 1-5.703291-7.258734c0-2.462785 3.499747-16.721013 41.478481-55.477468a204.281519 204.281519 0 0 1 188.208607-31.238481 6.481013 6.481013 0 0 1-4.666329 12.054683 194.43038 194.43038 0 0 0-175.116962 28.905317C529.887595 324.828354 526.906329 337.012658 526.776709 337.012658a6.221772 6.221772 0 0 1-6.351393 6.221772zM547.515949 674.025316a6.481013 6.481013 0 0 1-3.110886-12.962025c0.648101 0 67.143291-42.774684 110.954937-74.272405C838.124557 463.781266 812.070886 324.050633 811.811646 323.013671a6.481013 6.481013 0 0 1 12.962025-2.592405c1.296203 5.962532 28.516456 148.933671-162.025317 277.646582-44.070886 31.627342-110.825316 74.142785-111.473417 74.531646a6.481013 6.481013 0 0 1-3.758988 1.425822z" fill="#351800" p-id="4077"></path><path d="M679.339747 612.326076a9.721519 9.721519 0 0 1-8.166076-4.536709l-20.60962-32.534683a9.721519 9.721519 0 0 1 16.461772-10.369621L686.987342 597.419747a9.721519 9.721519 0 0 1-8.166076 14.906329zM737.928101 491.001519a6.481013 6.481013 0 0 1-4.666329-1.944304L711.74481 466.632911a6.481013 6.481013 0 0 1 9.332658-8.943797L742.59443 479.594937a6.481013 6.481013 0 0 1-4.666329 11.017721zM604.419241 576.032405a6.481013 6.481013 0 0 1-3.499747-11.925063l66.75443-42.515443a6.481013 6.481013 0 1 1 6.999494 10.888101l-66.754431 42.515443a6.481013 6.481013 0 0 1-3.499746 1.036962z" fill="#351800" p-id="4078"></path><path d="M685.691139 518.481013a6.481013 6.481013 0 0 1 0-12.962026s12.962025-2.851646 48.607595-36.812152a193.652658 193.652658 0 0 0 31.886582-173.691139 6.481013 6.481013 0 0 1 12.184304-4.407088 203.633418 203.633418 0 0 1-34.608607 186.912405C702.930633 515.499747 688.672405 518.481013 686.20962 518.481013zM373.56557 609.21519a6.481013 6.481013 0 0 1-6.481013-6.481013 53.792405 53.792405 0 0 1 50.292658-50.292658c18.017215 0 37.330633-8.295696 37.330633-25.924051a6.481013 6.481013 0 0 1 12.962025 0c0 25.924051-25.924051 38.886076-50.292658 38.886076a40.441519 40.441519 0 0 0-37.330633 37.330633 6.481013 6.481013 0 0 1-6.481012 6.481013zM494.242025 488.797975a6.481013 6.481013 0 0 1 0-12.962026c8.554937 0 38.108354-9.591899 41.608102-30.72a57.292152 57.292152 0 0 1 46.14481-46.14481 28.646076 28.646076 0 0 0 25.92405-25.92405 41.219241 41.219241 0 0 1 38.886076-38.886076 28.646076 28.646076 0 0 0 25.924051-25.924051c0-22.424304 25.924051-28.386835 38.886076-28.386835a6.481013 6.481013 0 0 1 0 12.962025s-25.924051 0-25.924051 15.42481a41.219241 41.219241 0 0 1-38.886076 38.886076 28.646076 28.646076 0 0 0-25.92405 25.924051 41.219241 41.219241 0 0 1-38.886076 38.886076 45.107848 45.107848 0 0 0-33.312405 35.256708c-4.277468 29.294177-40.96 41.608101-54.440507 41.608102zM461.188861 653.156456a6.221772 6.221772 0 0 1-6.481013-6.481013 6.481013 6.481013 0 0 1 6.481013-6.481013 40.441519 40.441519 0 0 0 37.460253-37.330633 61.31038 61.31038 0 0 1 9.332658-33.701265 35.386329 35.386329 0 0 1 30.071899-16.591393 6.481013 6.481013 0 0 1 0 12.962026c-18.146835 0-25.924051 19.313418-25.924051 37.330632a53.792405 53.792405 0 0 1-50.940759 50.292659z" fill="#351800" p-id="4079"></path><path d="M559.959494 543.627342a6.481013 6.481013 0 0 1-6.481013-6.481013c0-12.962025 12.962025-49.644557 41.608101-54.310886a45.107848 45.107848 0 0 0 35.256709-33.312405 42.774684 42.774684 0 0 1 9.721519-24.627848 37.719494 37.719494 0 0 1 29.683038-14.776709 28.646076 28.646076 0 0 0 25.924051-25.924051 42.774684 42.774684 0 0 1 9.721519-24.627848 37.589873 37.589873 0 0 1 29.683038-14.776709c15.16557 0 15.42481-25.924051 15.42481-25.92405a6.481013 6.481013 0 0 1 6.481012-6.481013 6.481013 6.481013 0 0 1 6.481013 6.481013c0 13.610127-5.962532 38.886076-28.386835 38.886076a24.757468 24.757468 0 0 0-19.572659 9.851139 29.812658 29.812658 0 0 0-6.869873 16.461772 41.219241 41.219241 0 0 1-38.886076 38.886076 24.757468 24.757468 0 0 0-19.572658 9.851139 29.812658 29.812658 0 0 0-6.869874 16.461772 57.292152 57.292152 0 0 1-46.14481 46.144811c-21.128101 3.370127-30.72 33.053165-30.72 41.608101a6.481013 6.481013 0 0 1-6.481012 6.610633z" fill="#351800" p-id="4080"></path><path d="M943.505823 412.451646s226.835443 86.327089 128.06481 307.2-339.993924 212.058734-369.417722 98.122531c0 0-55.607089 3.888608-65.976708-70.124557-12.054684-86.586329 39.145316-288.016203 307.32962-335.197974z" fill="#A86520" p-id="4081"></path><path d="M663.266835 791.720506a51.848101 51.848101 0 0 1-11.665822-1.036962 62.476962 62.476962 0 0 0 17.887595 17.369114 87.882532 87.882532 0 0 1-6.221773-16.332152zM972.151899 426.709873c57.421772 44.978228 121.065316 129.620253 59.884557 267.017722C960.097215 855.493671 811.033924 894.379747 725.095696 857.956456c69.476456 71.80962 261.18481 52.496203 346.474937-138.30481 76.087089-170.191392-41.08962-260.407089-99.418734-292.941773z" fill="#9B5719" p-id="4082"></path><path d="M829.56962 902.934684q-8.554937 0-16.721012-0.648102c-58.329114-4.92557-102.27038-34.608608-116.010127-77.772152-14.647089-0.777722-53.144304-9.203038-67.402532-75.309367a249.389367 249.389367 0 0 1 41.089621-181.468354c36.812152-56.12557 113.676962-129.620253 271.165569-161.636456a6.610633 6.610633 0 0 1 3.629367 0c4.277468 1.555443 103.696203 40.571139 142.582279 133.24962 22.553924 54.440506 18.924557 115.880506-10.888101 182.634937C1017.389367 856.530633 910.452658 902.934684 829.56962 902.934684z m-127.93519-91.77114a6.481013 6.481013 0 0 1 6.351393 4.79595c10.499241 40.571139 51.07038 68.698734 105.899747 73.235443 77.772152 6.481013 189.764051-34.738228 251.333671-172.394937 28.646076-63.125063 32.275443-120.546835 10.62886-172.394937-33.571646-81.142278-120.417215-120.028354-133.50886-125.472405-151.785316 31.108861-225.668861 101.751899-260.92557 155.544304a236.038481 236.038481 0 0 0-38.886076 171.487595c15.035949 69.735696 56.903291 64.810127 58.717975 64.810127z" fill="#341701" p-id="4083"></path><path d="M796.127595 816.607595c-68.569114 0-74.920506-25.016709-77.772152-38.886076v-1.944304a70.772658 70.772658 0 0 1-59.884557-4.925569c-19.831899-12.962025-31.497722-38.237975-34.478987-75.179747v-2.333165c71.68-243.426835 249.130127-302.533671 279.331645-304.607595 5.832911-9.073418 17.757975-20.48 31.627342-13.998987l1.685063 1.166582a38.886076 38.886076 0 0 1 9.073418 33.571646c-0.648101 13.998987 0 22.165063 10.888101 27.349873 54.570127 36.941772 79.068354 94.622785 70.124557 162.803038A272.202532 272.202532 0 0 1 855.493671 812.330127h-1.296203a440.708861 440.708861 0 0 1-58.069873 4.277468z m-77.772152-53.922025a10.24 10.24 0 0 1 4.92557 1.166582 15.42481 15.42481 0 0 1 6.610633 11.147342c3.240506 12.962025 9.980759 38.886076 121.583797 24.368607a259.240506 259.240506 0 0 0 161.636456-200.652152c8.295696-63.125063-14.387848-116.658228-63.643545-149.841012-19.054177-8.554937-18.276456-25.924051-17.498734-38.886076a30.331139 30.331139 0 0 0-4.147848-22.683545c-8.036456-2.333165-15.684051 11.795443-15.813671 12.054684l-1.814683 3.629367h-6.221772c-23.850127 0-197.022785 54.829367-268.054684 294.237975 2.851646 32.145823 12.962025 53.792405 28.516456 64.810126a59.106835 59.106835 0 0 0 49.385316 3.240507 15.42481 15.42481 0 0 1 5.05519-2.073924z" fill="#341701" p-id="4084"></path><path d="M906.17519 396.119494a5.962532 5.962532 0 0 1-2.203544 0c-62.865823-9.980759-283.349873 129.620253-274.535697 299.941265 7.388354 90.734177 64.810127 81.79038 86.586329 74.272406s8.295696 81.142278 137.527089 35.90481c181.468354-42.774684 230.724051-287.627342 99.677975-362.936709-28.775696-12.962025-3.629367-45.107848-21.646583-62.088101-14.647089-6.351392-25.40557 14.906329-25.405569 14.906329z" fill="#EFB681" p-id="4085"></path><path d="M790.683544 825.551392a67.143291 67.143291 0 0 1-65.717468-40.052658 34.608608 34.608608 0 0 0-6.351392-9.332658 70.643038 70.643038 0 0 1-60.921519-4.536709c-19.831899-12.962025-31.497722-38.237975-34.478988-75.179747-5.18481-101.363038 66.884051-181.468354 110.306836-221.002531 58.717975-52.755443 132.342278-90.086076 169.413671-86.197469 5.832911-9.073418 17.628354-20.091139 31.497721-13.739747l1.685063 1.166583a38.886076 38.886076 0 0 1 9.073418 33.571645c-0.648101 13.998987 0 22.165063 10.888101 27.349874 57.940253 33.182785 86.586329 101.363038 75.438988 178.487088-10.758481 74.013165-63.384304 169.802532-176.283545 196.374684A199.096709 199.096709 0 0 1 790.683544 825.551392z m-71.68-62.347341c8.295696 0 12.962025 8.425316 17.239494 15.943291 10.758481 19.183797 28.775696 51.2 115.362025 20.868861a221.650633 221.650633 0 0 0 166.691646-185.745823c10.36962-71.68-15.813671-134.934684-68.439494-165.136203-19.443038-8.814177-18.665316-25.924051-18.017215-38.886076a30.331139 30.331139 0 0 0-4.147848-22.683544c-8.036456-2.333165-15.684051 11.795443-15.813671 12.054684l-1.296203 2.592405L907.341772 401.822785a11.795443 11.795443 0 0 1-4.925569 0c-28.257215-4.407089-97.863291 25.924051-161.117975 82.697721-41.737722 37.460253-110.954937 114.713924-106.029367 210.503291 2.592405 32.534684 12.313924 54.570127 28.516455 64.810127a59.106835 59.106835 0 0 0 49.385317 3.240506 14.776709 14.776709 0 0 1 5.444051 0.259241z" fill="#341701" p-id="4086"></path><path d="M887.121013 430.339241h-1.944304c-24.498228 0-218.669367 63.384304-242.519494 247.574683 4.407089 72.587342 54.051646 64.810127 72.846582 57.940253s-20.220759 62.736203 119.509874 41.867342c177.190886-41.478481 217.891646-257.425823 90.734177-309.922025-24.498228-9.980759-2.203544-36.293671-17.369114-49.514937-11.536203-5.31443-21.257722 12.054684-21.257721 12.054684z" fill="#FFFFFF" p-id="4087"></path><path d="M885.047089 446.541772h-1.814684a268.573165 268.573165 0 0 0-212.706835 226.576203c4.666329 65.847089 41.608101 61.180759 58.847595 54.829367s-18.017215 57.292152 110.825316 35.256709C1003.52 721.595949 1020.111392 522.628861 921.72962 479.594937c-22.683544-8.554937-2.333165-32.923544-16.461772-44.589367-10.888101-4.407089-20.220759 11.536203-20.220759 11.536202z" fill="#3A1B05" p-id="4088"></path><path d="M811.293165 878.825316a176.153924 176.153924 0 0 1-39.923038-4.018227 6.481013 6.481013 0 0 1 3.110886-12.962026 218.928608 218.928608 0 0 0 182.764557-51.848101 6.481013 6.481013 0 0 1 8.425316 9.851139 234.094177 234.094177 0 0 1-154.377721 58.977215zM989.261772 801.442025a6.481013 6.481013 0 0 1-5.18481-10.36962c132.083038-176.931646 56.51443-279.331646 55.736709-280.368608a6.481013 6.481013 0 1 1 10.24-7.906835c3.370127 4.407089 82.179241 111.343797-55.607089 296.052658a6.481013 6.481013 0 0 1-5.18481 2.592405z" fill="#351800" p-id="4089"></path><path d="M1013.63038 782.517468a6.481013 6.481013 0 0 1-4.666329-1.944303l-19.313418-19.572659a6.481013 6.481013 0 0 1 9.203038-9.073417l19.313418 19.572658a6.481013 6.481013 0 0 1-4.66633 11.017721zM1011.037975 509.148354a6.481013 6.481013 0 0 1-1.166583-12.962025L1036.962025 491.260759a6.481013 6.481013 0 0 1 2.333165 12.962026l-27.090633 5.05519zM826.199494 846.809114a50.681519 50.681519 0 0 1-31.627342-10.24 6.481013 6.481013 0 0 1 8.036456-10.11038 43.163544 43.163544 0 0 0 55.607088-6.221772 64.810127 64.810127 0 0 1 29.553418-21.516962 36.812152 36.812152 0 0 1 35.256709 5.962532 6.481013 6.481013 0 0 1-8.036456 10.110379 23.720506 23.720506 0 0 0-23.202025-3.758987A51.848101 51.848101 0 0 0 868.455696 828.273418a54.310886 54.310886 0 0 1-42.256202 18.535696z" fill="#351800" p-id="4090"></path><path d="M867.418734 556.459747a5.573671 5.573671 0 0 0-9.721519-2.851646c-8.814177 9.721519-21.776203 20.35038-30.72 11.665823-14.776709-14.258228 2.592405-20.35038 19.961519-25.924051s28.646076-29.553418 10.888101-51.848101-51.848101 18.146835-46.015189 35.51595-55.477468-20.60962-46.01519 34.349367-81.142278 18.665316-42.515443 73.365063c17.757975 22.942785-5.18481 40.83038-10.888102 51.848101s29.553418 57.292152 63.773165 17.109874l0.777721-1.166583c11.406582-23.072405 38.886076-51.848101 37.460254-4.018228a5.832911 5.832911 0 0 1 0 2.203545c-11.017722 23.331646-18.276456 54.181266 33.053164 36.293671 17.369114-6.092152-0.907342-58.199494 16.980253-35.127089s49.255696 31.886582 42.904304-43.552405c0-29.034937 72.457722-15.55443 22.165063-75.957468-17.757975-22.942785 5.18481-40.83038-6.481012-46.404051s-38.108354-25.924051-28.646076 29.553418c7.777215 47.700253-22.683544 27.997975-26.961013-5.05519z" fill="#FFFFFF" p-id="4091"></path><path d="M865.733671 553.996962a6.481013 6.481013 0 0 0-11.147342-3.370127c-9.332658 10.11038-22.683544 20.60962-31.886582 11.665823-15.684051-15.16557 2.722025-21.646582 21.257721-28.127595s30.460759-31.368101 11.536203-55.736709-55.347848 19.313418-48.866836 37.849114-58.977215-20.739241-48.866835 37.849114-86.197468 19.831899-45.237468 77.772152c18.924557 24.498228-5.573671 43.293165-11.536203 55.736709s31.368101 60.921519 67.661772 18.146835l0.907342-1.425822c12.184304-24.498228 41.478481-54.440506 39.793418-4.407089a6.869873 6.869873 0 0 1 0 2.592405c-11.665823 24.757468-19.313418 57.551392 35.127088 38.886076 18.406076-6.481013-0.907342-61.828861 18.017216-37.330633s53.014684 33.182785 45.626329-47.052152c0-30.84962 76.99443-16.591392 23.590886-80.753417-18.924557-24.498228 5.573671-43.293165-6.869874-49.385317s-40.571139-27.220253-30.460759 31.368101c8.036456 50.940759-23.461266 30.071899-28.646076-4.277468z" fill="#FFE5CF" p-id="4092"></path><path d="M843.568608 560.477975c6.351392 4.407089 12.054684 1.944304 12.962025-10.888102a5.832911 5.832911 0 0 0-1.555443 0.907342 73.494684 73.494684 0 0 1-11.406582 9.98076zM806.108354 507.592911a17.369114 17.369114 0 0 0 0 8.425317c3.240506 9.203038-11.665823 4.018228-25.92405 3.888607-4.018228 4.147848-4.018228 9.332658 3.240506 16.332152 9.332658 9.073418 22.553924-1.555443 31.886582-11.665822a6.481013 6.481013 0 0 1 11.147342 3.370126 64.810127 64.810127 0 0 0 2.851646 11.406582c4.277468-1.944304 9.203038-3.629367 14.128607-5.31443a30.72 30.72 0 0 0 10.24-6.351392c-4.018228-27.090633 1.036962-35.127089 8.554937-35.51595A45.88557 45.88557 0 0 0 855.493671 478.298734c-8.166076-10.628861-19.702278-8.295696-29.553418-0.907342a32.016203 32.016203 0 0 1-19.831899 30.201519zM769.814684 676.747342a6.869873 6.869873 0 0 0 0-2.592405c1.685063-50.163038-27.738734-20.220759-39.793418 4.407088l-0.907342 1.425823a43.033924 43.033924 0 0 1-28.127595 16.980253c6.092152 16.202532 33.053165 40.441519 60.921519 15.16557a54.440506 54.440506 0 0 1 7.906836-35.386329zM931.062278 576.032405c-18.924557-24.498228 5.573671-43.293165-6.869873-49.385316s-37.978734-25.146329-31.497721 23.979746c51.848101 63.384304-24.498228 49.255696-23.979747 80.105317 7.388354 80.234937-26.831392 71.420759-45.626329 47.052152s0 30.84962-18.017216 37.330633h-1.555443c-7.129114 21.387342-4.795949 41.219241 40.441519 25.92405 18.406076-6.481013-0.907342-61.828861 18.017216-37.330633s53.014684 33.182785 45.626329-47.052151c-0.259241-30.84962 77.512911-16.461772 23.461265-80.623798z" fill="#F7D5BC" p-id="4093"></path><path d="M788.220759 787.961519c-54.181266 0-67.143291-20.868861-71.93924-42.515443v-2.722025l-2.203544 0.777721c-11.147342 4.147848-27.868354 10.36962-41.867342 1.296203s-19.443038-25.924051-21.128101-55.736709c24.238987-190.023291 194.43038-262.221772 233.316455-264.943798a24.238987 24.238987 0 0 1 27.997975-11.925063l1.814684 1.166582A30.84962 30.84962 0 0 1 920.303797 440.708861c-0.907342 11.147342-0.907342 16.591392 7.906836 20.220759 52.625823 21.905823 82.179241 74.272405 76.99443 136.878988-6.092152 73.883544-60.791899 159.951392-169.28405 185.356962a327.420759 327.420759 0 0 1-47.700254 4.795949z m-70.513417-58.977215a9.462278 9.462278 0 0 1 4.795949 1.166582c4.407089 2.462785 5.444051 7.258734 6.610633 12.962025 3.240506 15.035949 9.332658 42.904304 105.122025 28.386836A199.48557 199.48557 0 0 0 992.891139 597.290127c4.666329-57.681013-21.128101-103.696203-69.087595-123.787342C905.915949 466.632911 907.341772 451.208101 907.989873 440.708861c0-7.906835 0.907342-12.962025-2.333164-16.591393-6.221772-1.166582-12.962025 9.721519-12.962025 9.721519l-1.814684 3.370127h-5.573671c-19.313418 0-197.022785 58.588354-221.909873 252.500253 1.555443 23.072405 6.740253 38.886076 15.42481 44.459747s20.60962 1.036962 30.201519-2.592405l3.888607-1.814684a12.962025 12.962025 0 0 1 4.79595-0.777721z" fill="#341701" p-id="4094"></path><path d="M817.903797 742.853671a22.165063 22.165063 0 0 1-17.498734-6.610633c-7.517975-8.425316-6.351392-22.813165 3.629367-44.070886 0-16.072911-2.722025-18.794937-2.722025-18.794937A53.792405 53.792405 0 0 0 778.628861 699.949367l-0.907342 1.296203c-16.461772 19.702278-37.330633 24.498228-55.866329 12.962025-12.962025-8.425316-23.979747-25.924051-19.054177-36.03443a66.884051 66.884051 0 0 1 6.351392-9.721519c9.591899-12.962025 15.16557-22.813165 5.18481-35.77519s-12.962025-23.461266-9.980759-31.368102 14.517468-12.962025 25.275949-15.68405c18.276456-5.05519 29.294177-9.073418 25.924051-28.905317a35.515949 35.515949 0 0 1 5.573671-31.756962 38.886076 38.886076 0 0 1 34.349367-6.481012h5.31443a51.848101 51.848101 0 0 1 25.924051-43.552405 23.202025 23.202025 0 0 1 31.368101 5.57367 42.385823 42.385823 0 0 1 8.814177 38.886076 36.293671 36.293671 0 0 1-22.553924 23.979747c-6.610633 2.333165-20.35038 7.129114-21.128101 10.369621 0 0 0 2.073924 3.499747 5.18481a4.277468 4.277468 0 0 0 3.758987 1.296202c7.777215-0.777722 20.220759-14.517468 26.572152-24.109367a6.481013 6.481013 0 0 1 11.795443 4.407089 44.589367 44.589367 0 0 0 14.387848 41.08962 56.644051 56.644051 0 0 0-0.777721-20.998481c-4.018228-23.590886-2.333165-36.682532 5.703291-42.385823s20.60962 0 28.386835 4.147848l3.758987 1.944304c9.851139 4.795949 7.129114 14.387848 5.314431 20.868861a26.961013 26.961013 0 0 0 3.499747 27.349873c14.906329 17.887595 20.868861 31.368101 18.535696 42.515443s-12.962025 17.498734-23.331646 22.424304-16.072911 8.684557-15.943291 14.647089c3.499747 37.330633-2.333165 59.495696-17.109873 64.810126a32.793924 32.793924 0 0 1-34.219747-12.962025c0 12.962025 0 29.164557-12.962025 33.571646a85.419747 85.419747 0 0 1-26.183292 5.31443zM801.312405 661.063291a12.962025 12.962025 0 0 1 3.240506 0c13.610127 3.370127 12.962025 25.924051 12.313924 33.182785a6.351392 6.351392 0 0 1 0 2.462785c-8.684557 18.146835-8.943797 27.868354-6.221772 30.97924s7.258734 5.444051 30.59038-2.722025c4.277468-1.425823 4.018228-15.42481 3.888608-22.165063 0-9.462278 0-16.461772 6.092152-18.665317s11.406582 4.407089 14.128607 7.906836c7.517975 9.721519 16.850633 15.16557 22.294684 12.962025s12.184304-17.628354 8.943797-52.625823c0-15.29519 12.962025-21.776203 23.072405-26.961012 7.777215-3.888608 15.16557-7.647595 16.461772-12.962026s-1.036962-13.869367-15.943291-31.756962a39.663797 39.663797 0 0 1-5.832911-38.886076 25.924051 25.924051 0 0 0 1.296202-6.221772 11.406582 11.406582 0 0 1-4.018227-1.685063c-3.370127-1.814684-12.962025-6.610633-14.647089-5.05519 0 0-4.92557 3.888608 0 29.683038 3.240506 18.406076 1.425823 29.553418-5.444051 34.219747a12.962025 12.962025 0 0 1-14.258228 0A51.848101 51.848101 0 0 1 857.178734 557.367089a45.237468 45.237468 0 0 1-24.627848 15.55443 17.239494 17.239494 0 0 1-14.128608-4.92557 18.665316 18.665316 0 0 1-7.258734-17.239493c2.333165-10.36962 15.42481-15.035949 29.423798-19.831899a23.202025 23.202025 0 0 0 14.906329-15.55443 29.942278 29.942278 0 0 0-6.610633-26.831393c-2.333165-3.110886-6.481013-6.610633-14.906329-2.073924-12.184304 6.610633-22.165063 24.368608-19.702279 31.497722a9.851139 9.851139 0 0 1-1.166582 9.980759c-3.758987 4.795949-10.36962 4.018228-18.665316 3.110886s-18.924557-2.073924-23.461266 2.722026a25.924051 25.924051 0 0 0-2.333165 20.73924c5.573671 32.405063-18.924557 38.886076-35.256709 43.682025-7.129114 1.944304-15.29519 4.147848-16.461772 7.517975s-0.907342 6.481013 8.166076 19.183798c16.591392 21.387342 2.981266 40.052658-5.18481 51.070379a60.532658 60.532658 0 0 0-5.18481 7.777215 31.238481 31.238481 0 0 0 17.369114 21.257722c11.925063 5.832911 24.109367 2.073924 35.256709-11.147342 5.05519-10.36962 19.572658-32.793924 33.960506-32.793924z" fill="#EFB681" p-id="4095"></path><path d="M985.113924 745.834937a6.481013 6.481013 0 0 1-2.203544-12.962026s16.721013-7.388354 38.886076-52.885063c51.848101-106.936709-20.220759-202.077975-20.868861-203.114937a6.481013 6.481013 0 0 1 10.24-7.906835c0.777722 1.036962 77.772152 102.27038 22.294683 216.595443-24.498228 50.811139-43.941266 58.847595-46.14481 59.495696zM820.625823 599.364051a6.481013 6.481013 0 0 1-6.481013-6.351393 22.424304 22.424304 0 0 0 0-4.147848 18.924557 18.924557 0 0 0-3.370126 2.722025 6.481013 6.481013 0 1 1-9.332659-8.943797c2.203544-2.333165 10.11038-9.721519 18.017216-6.610633s8.036456 12.962025 8.166075 16.850633a6.481013 6.481013 0 0 1-6.351392 6.610633zM857.956456 614.011139a6.481013 6.481013 0 0 1-6.481013-6.351392 22.424304 22.424304 0 0 0 0-4.147848 18.924557 18.924557 0 0 0-3.370127 2.722025 6.481013 6.481013 0 0 1-9.332658-8.943797c2.203544-2.333165 10.11038-9.721519 18.017215-6.610633s8.036456 12.962025 8.166076 16.850633a6.481013 6.481013 0 0 1-6.351392 6.610632zM817.774177 643.823797a23.461266 23.461266 0 0 0 28.646076-7.906835 3.240506 3.240506 0 0 0-1.814683-4.666329l-37.849114-14.906329a3.240506 3.240506 0 0 0-4.536709 2.203544 23.461266 23.461266 0 0 0 15.55443 25.275949z" fill="#351800" p-id="4096"></path><path d="M825.753934 623.751001m3.620016 1.420126l0.241334 0.094675q3.620015 1.420126 2.199889 5.040142l-1.088764 2.775345q-1.420126 3.620015-5.040141 2.199889l-0.241335-0.094675q-3.620015-1.420126-2.199888-5.040142l1.088763-2.775345q1.420126-3.620015 5.040142-2.199889Z" fill="#FFFFFF" p-id="4097"></path><path d="M818.344376 620.826702m3.620016 1.420126l0.241334 0.094675q3.620015 1.420126 2.199889 5.040142l-0.426038 1.086004q-1.420126 3.620015-5.040142 2.199889l-0.241334-0.094675q-3.620015-1.420126-2.199889-5.040141l0.426038-1.086005q1.420126-3.620015 5.040142-2.199889Z" fill="#FFFFFF" p-id="4098"></path><path d="M870.788861 528.202532a6.481013 6.481013 0 0 1-5.832912-9.332659L894.379747 460.151899a6.481013 6.481013 0 1 1 11.536202 5.832911l-29.294177 58.588355a6.481013 6.481013 0 0 1-5.832911 3.629367z" fill="#EFB681" p-id="4099"></path><path d="M763.333671 860.419241h-1.555443c-41.867342-10.499241-62.217722-60.403038-63.125063-62.476963a6.481013 6.481013 0 0 1 12.054683-4.795949s18.794937 45.88557 54.181266 54.699747a6.481013 6.481013 0 0 1-1.555443 12.962025zM596.253165 855.493671a102.4 102.4 0 0 1-38.108355-10.628861 111.603038 111.603038 0 0 0-80.364557-9.980759c-53.403544 15.29519-116.658228 24.238987-136.749367 3.888607a21.516962 21.516962 0 0 1-4.018228-22.813164c0.907342-5.832911 8.425316-49.774177 32.923545-66.23595a36.552911 36.552911 0 0 1 30.331139-5.05519c16.202532 4.018228 22.294684-3.758987 30.97924-16.850632s19.831899-29.942278 47.959494-15.943292a50.811139 50.811139 0 0 1 29.683038 41.348861l7.129114-6.869873c23.202025-23.202025 80.234937-9.721519 110.695696 17.628354 23.590886 21.128101 27.220253 46.792911 9.851139 68.698734A50.292658 50.292658 0 0 1 596.253165 855.493671z m-91.511899-37.589874a147.248608 147.248608 0 0 1 58.847595 14.776709c25.924051 11.017722 42.126582 17.757975 62.995443-8.295696 16.721013-20.868861 4.666329-38.886076-8.295696-50.940759-27.997975-25.016709-76.60557-34.478987-92.937722-18.146836-11.147342 11.147342-16.202532 15.42481-22.165063 12.962026s-6.092152-7.129114-6.869874-12.962026a38.108354 38.108354 0 0 0-22.942784-33.182785c-17.757975-8.943797-22.553924-1.685063-31.368102 11.536203s-19.054177 28.646076-44.978228 22.294683a23.850127 23.850127 0 0 0-19.961519 3.240507c-17.369114 11.665823-25.924051 45.755949-27.479493 57.940253v1.166582c-1.944304 5.832911 0 8.554937 1.296202 10.24 10.499241 10.888101 56.38481 11.795443 123.787342-7.388354a109.140253 109.140253 0 0 1 30.071899-3.240507z m-161.377215 0z" fill="#351800" p-id="4100"></path><path d="M377.324557 790.683544s29.294177-19.572658 38.886076-9.721519 38.886076 19.572658 38.886076 9.721519 0-48.866835 19.572658-29.294177 29.294177 19.572658 19.572658 29.294177-68.439494 29.294177-87.882531 19.572659-48.607595 9.462278-29.034937-19.572659zM533.646582 761.130127S592.364557 751.797468 622.177215 790.683544c0 38.886076-38.886076 29.294177-38.886076 19.572659s0-29.294177-19.572658-19.572659-38.886076 9.721519-29.294177 0-39.793418 0-0.777722-29.553417zM455.48557 741.557468s9.721519-19.572658 19.572658-9.721519S504.352405 751.797468 484.779747 751.797468s0-10.24-29.294177-10.24z" fill="#FFE5CF" p-id="4101"></path></svg>